<?xml version="1.0" standalone="no"?>
<!DOCTYPE svg PUBLIC "-//W3C//DTD SVG 20010904//EN"
 "http://www.w3.org/TR/2001/REC-SVG-20010904/DTD/svg10.dtd">
<svg version="1.0" xmlns="http://www.w3.org/2000/svg"
 width="380.000000pt" height="656.000000pt" viewBox="0 0 380.000000 656.000000"
 preserveAspectRatio="xMidYMid meet">
<metadata>
Created by potrace 1.16, written by Peter Selinger 2001-2019
</metadata>
<g transform="translate(0.000000,656.000000) scale(0.100000,-0.100000)"
fill="#000000" stroke="none">
<path d="M0 3280 l0 -3280 1900 0 1900 0 0 3280 0 3280 -1900 0 -1900 0 0
-3280z m1693 2823 c3 -5 1 -28 -4 -53 l-8 -45 3 47 c5 63 -9 52 -33 -27 -93
-299 -29 -673 154 -914 33 -43 41 -49 47 -34 6 15 7 15 7 -4 1 -13 -3 -23 -7
-23 -4 0 -33 31 -64 69 -51 62 -120 118 -230 186 -25 16 -38 35 -57 90 -21 61
-24 89 -25 210 -1 122 2 149 22 210 35 102 80 188 130 245 42 49 56 58 65 43z
m-269 -396 c-40 -185 2 -362 181 -772 60 -140 65 -175 30 -229 -22 -34 -44
-33 -86 4 -120 106 -257 23 -247 -150 l3 -45 -105 3 c-128 5 -144 13 -159 82
-27 126 -33 202 -28 345 11 302 98 533 281 747 110 128 155 134 130 15z m218
-514 c36 -28 102 -96 155 -163 102 -126 152 -166 219 -176 99 -15 177 16 279
111 39 36 73 65 78 65 12 0 8 -83 -9 -145 -16 -65 -62 -166 -129 -285 -127
-227 -220 -409 -241 -469 -20 -57 -39 -71 -98 -71 -59 0 -65 13 -77 145 -32
375 -126 752 -240 964 -16 30 -29 58 -29 63 0 19 33 5 92 -39z m500 11 c15 -8
39 -34 53 -57 64 -110 -6 -228 -136 -229 -124 -1 -193 138 -119 240 17 23 31
42 33 42 1 0 20 7 42 15 42 15 82 12 127 -11z m-649 -505 c48 -13 77 -57 77
-116 0 -113 -151 -159 -215 -65 -29 42 -31 65 -10 115 18 44 31 53 53 35 15
-12 16 -11 3 4 -12 16 -10 19 10 27 32 13 37 13 82 0z m230 -144 c35 -112 57
-267 57 -402 0 -96 -6 -103 -91 -103 -78 0 -127 29 -215 126 -97 107 -189 175
-312 230 -69 31 -97 49 -97 61 0 15 11 18 77 21 66 2 88 -1 155 -28 146 -58
214 -51 283 27 36 41 45 61 77 172 6 21 47 -44 66 -104z m327 -565 c136 -12
317 -43 278 -48 l-27 -3 2 -472 c2 -372 -1 -485 -12 -532 -7 -33 -13 -72 -13
-88 1 -15 -12 -80 -27 -145 -16 -64 -43 -180 -61 -257 -39 -170 -65 -261 -91
-323 -33 -74 -76 -234 -104 -377 -16 -83 -32 -119 -68 -153 -27 -26 -142 -77
-319 -143 -104 -38 -118 -46 -118 -66 0 -18 5 -23 28 -23 33 0 217 41 336 76
48 14 90 23 93 21 2 -3 6 -41 9 -85 11 -216 60 -411 129 -523 42 -66 97 -140
101 -136 3 2 -5 26 -17 53 -34 80 -82 244 -71 244 4 0 17 -39 29 -86 28 -106
70 -202 96 -215 10 -6 64 -22 118 -35 55 -13 117 -33 138 -43 40 -21 95 -78
113 -116 6 -13 20 -27 33 -33 16 -7 24 -21 27 -46 2 -20 0 -36 -4 -36 -4 0 -8
15 -8 34 0 26 -5 35 -22 40 -13 3 -394 6 -849 6 -628 0 -828 -3 -837 -12 -7
-7 -12 -22 -12 -35 0 -15 -10 -27 -32 -38 -32 -16 -33 -16 -11 2 12 10 25 31
29 46 3 16 18 34 34 42 15 8 30 26 34 39 8 32 60 93 95 110 14 8 76 26 136 41
61 15 120 33 132 41 48 30 111 256 134 478 16 162 -1 474 -28 508 -6 7 -16 31
-23 53 -19 60 -20 61 -50 14 -15 -24 -38 -53 -51 -64 -22 -18 -21 -17 2 10 15
17 39 52 54 79 l27 50 -18 55 c-10 31 -44 119 -77 196 -32 77 -72 180 -87 228
-16 48 -36 100 -46 115 -31 45 -103 447 -132 727 -17 163 -17 171 0 188 21 20
24 93 7 214 -14 110 -15 111 -90 186 -79 79 -82 90 -3 15 l55 -52 -2 78 c-3
93 -2 95 111 130 204 64 619 93 930 66z m-285 -3870 l940 -5 -942 0 c-793 0
-944 2 -955 14 -11 12 -10 12 2 5 8 -5 429 -11 955 -14z"/>
</g>
</svg>
