<svg id="Layer_1" data-name="Layer 1" xmlns="http://www.w3.org/2000/svg" viewBox="0 0 3717.31 1309.15"><path d="M2494.56,898.48h-20.74v57.46h17.45A25.73,25.73,0,0,0,2517,930.21v-9.3A22.43,22.43,0,0,0,2494.56,898.48Z"/><ellipse cx="1923.23" cy="963.41" rx="45.66" ry="68.74"/><path d="M2535.38,398.67c-1.46-29-8-40.89-21.76-48.7s-22.32-6.48-55.3-7.47-115.2-1.54-153.46-1.76-59.14,2.2-73.87,18.47-15.06,38.47-14.73,58.26,1.65,102,4.51,139.06,1.43,52.22,14.84,65.08,29.24,14,54,13.63c24.2-.35,143.06-.73,165.78-.73s53,1.46,69.32-15.69,14.08-29.6,14.08-62.58S2536.85,427.69,2535.38,398.67Z"/><path d="M0,0V1309.15H3717.31V0ZM337.48,898.63H269.84v45.72h62.64v40.86H269.84V1070H228.5V857.15h39.21v41.48h2.13V857.15h67.64ZM450.41,1070H409.08V857.15h41.33ZM658,898.56H608.42V1070H567.08V898.56H516.66V857.15H658Zm60-137.72-23.2-61.25a17.25,17.25,0,0,0-16.14-11.15H420.32a24,24,0,0,0-22.18,14.93l-25.53,62.81a16.47,16.47,0,0,1-15.48,10.28c-20.71-.26-65.61-.79-96.53-1H246.79c-7.48,0-17.7-1.93-23.42-7.42s-3.24-16.16,1.93-27.87,134.24-306.37,161.21-369.4,56.06-128.9,95-154.41S573.61,187,618.68,201.68s69.69,58.26,82.88,95.2S815.23,615.67,830.62,658.1c10.33,28.48,25.26,71.61,34,96.9A15.47,15.47,0,0,1,850,775.51H739.23A22.72,22.72,0,0,1,718,760.84ZM885.14,1070H843.81l-78-133.71V1070H724.5V857.15h43.39L843.81,990V857.15h41.33Zm196.44,0h-112V857.15h108.31v40.6h-67v43.68h62v41.18h-62v46.76h70.68Zm-21.43-489.59c-4.47,0-7.55,1.36-10,19s-2.57,19.49-1.39,106.85c.43,41,1,48.59-1.69,57.23S1038.16,776,1023.36,776s-53.21.52-70.87,0c-32.79-1-37.15-14-36.86-35.54s-2.64-350.6-2.49-376,1-55,2.45-75.56-.77-44.63,3.63-61,15.28-28,37.6-32.75,57.27-3.19,90.91-3.19,254.7.88,308.23,1.32,57.61.33,66.4,1.76,13.52,7.36,14.07,19.45S1436,311.46,1436,324s-.14,19.95-11,26.08c-9.6,5.43-29.68,4.69-48.15,4.69s-216.41,2.57-259.21,2.13-48.66.29-53.13,5.28-5.86,14.51-5.79,31.07-1.32,26.68,2,30.41,4.4,5.13,27.92,5.13,249.61.22,275.7.37,42.58-1,54.23,5.06,16,16.63,15.39,31.8-1.32,62.08-1.46,80.76-6.67,25.21-11.87,28.66-12.83,4.61-29.69,4.61-273.9.33-297.75.33Zm212.1,433.89c-.22,16.49-11.33,56.17-59.58,58.81-50.45,2.76-65.71-15.72-65.71-15.72v-56.28c17.94,20.45,32.84,31,55.26,31.22s28.25-7.59,28.25-20.45-15.17-20.77-27.48-28.14-32.43-15.72-45.73-33.86-14.73-50.12,1.65-71.23S1203,852,1228.64,853.7,1265.05,865,1265.05,865v52.33c-11.31-7.71-21.75-20.72-42.42-22.55s-32.17,3.88-33.56,17.22,5.46,17.92,39.43,37.15C1270.38,973.27,1272.47,997.78,1272.25,1014.27Zm190.67,0c-.22,16.49-11.32,56.17-59.58,58.81-50.45,2.76-65.71-15.72-65.71-15.72v-56.28c17.95,20.45,32.84,31,55.27,31.22s28.25-7.59,28.25-20.45-15.17-20.77-27.48-28.14-32.43-15.72-45.73-33.86-14.73-50.12,1.65-71.23,44.08-26.6,69.73-24.92,36.4,11.34,36.4,11.34v52.33c-11.3-7.71-21.74-20.72-42.41-22.55s-32.17,3.88-33.56,17.22,5.46,17.92,39.42,37.15C1461.06,973.27,1463.14,997.78,1462.92,1014.27Zm313.41,55.7h-112V857.15h108.32v40.6h-67v43.68h62v41.18h-62v46.76h70.68Zm43.05-708.53c-3.73,7-3.66,18.77-3.51,35.4s1,183.36,1.24,208.86.52,127.67.52,144.45-8.29,25.8-22.36,25.8h-75.33c-5.65,0-15.39,1.24-23-5.43s-6.88-19.27-7-35.54,1.25-330.88.22-354-2-26.68-25.21-26.68-88.09-1.32-121.87-2.34c-24.51-.75-31.22-1.84-43.17-3.59s-18.1-16.27-18.54-27.41-.37-41.63-.07-56.73,1.53-44.19,2.71-55.25,7.18-15.39,15.46-16.64,25.94-.73,47.2-.73,153.68.29,176.61.44,128.62-.3,154.27-.08,95.34.08,111.39.52,28.29,1.9,34.67,9.45,6.81,21.77,7,39.14.37,56.65-1.39,75.48-7.33,29.31-20.3,33.78S1973.5,354,1954.52,354h-107C1829.21,354,1823.12,354.41,1819.38,361.44Zm155.3,734.91-28.81-26.07v0a85.36,85.36,0,0,1-22.63,3c-57.42,0-85.67-49.15-85.67-109.79s32-109.79,85.67-109.79c58.23,0,85.67,49.16,85.67,109.79,0,33.27-8.76,63.06-26,83.19l57.52,49.75Zm249.68-104.5c0,39.5-22.72,81.78-71.53,81.78h-8.35c-49.1,0-69.91-41.56-69.91-80.17V857.15h41.33V986.72c0,30.63,12.76,45.29,28.51,45.29h10.11c15.74,0,28.51-11,28.51-45.29V857.15h41.33ZM2348.07,1070h-41.34V857.15h41.34Zm210.84-140.75a68.05,68.05,0,0,1-68,68h-17V1070h-41.33V857.15h64.82a61.59,61.59,0,0,1,61.6,61.59Zm-18.84-153c-19.2,0-103.18-.44-136.75-.44,0,0-31.29.81-110,.45s-112.12,4.53-159.83-20.09-57.39-66-62-134.77-4.62-185.12-4.4-230.41-1.32-77,14.29-114.77,42.21-64,84-72.77,120.48-9.23,196.11-9,200.87,5.2,229.16,7.25,59.36,32.83,76.07,68,17.44,64.49,18.47,100.4,5,157,5,203.44,2.35,76.07-8.21,110.22-23.3,54.53-53.49,74S2559.27,776.24,2540.07,776.24ZM2827.92,1070h-41.34V956.52L2741.46,1070h-24.18l-45.15-112.61V1070H2630.8V857.15h44.14l54.36,137.44,55.94-137.44h42.68Zm196.9,0h-112V857.15h108.32v40.6h-67v43.68h62v41.18h-62v46.76h70.68Zm233.67,0h-41.33l-78-133.71V1070h-41.33V857.15h43.39L3217.16,990V857.15h41.33Zm-29.57-325.35C3204.63,720.65,2939,390,2939,390l-4,1.54s5.83,337.59,5.39,359.46-7.15,25.18-24.4,25.18H2805.48c-17.26,0-19.24-10.78-19.24-32.1s2.42-352.21,1.54-426.52-1.43-98.39-.11-110.59,10.55-15.39,36.39-17.26,60.13-3.19,94.42,1.32,66,17.7,90.25,38.69,93.66,110.7,137.64,166.76S3296.09,586,3296.09,586l2-397.06s24.29.22,54.63-.44,52.44-.55,69.36.11,27.49-.11,28.48,16.38,4.28,418.24,5.46,484.49,4.32,74.6-1.29,81.42-20.77,4.73-40.23,4.73H3290.37C3267.07,775.62,3253.22,768.58,3228.92,744.62Zm236.82,153.94h-49.61V1070H3374.8V898.56h-50.42V857.15h141.36Z"/><path d="M580.17,363.38a21.08,21.08,0,0,0-19.94-14.25h0a21.07,21.07,0,0,0-19.56,13.23L470.24,537.78c-2.05,5.12,1.88,9.9,7.4,9.9l154.49.79a8.19,8.19,0,0,0,7.75-10.85Z"/><rect x="267.71" y="944.35" width="2.13" height="40.86"/></svg>